<svg xmlns="http://www.w3.org/2000/svg" viewBox="0 0 102.5 102.5"><defs><style>.cls-1{fill:#f68725;}</style></defs><title>all-inclusive</title><g id="Слой_2" data-name="Слой 2"><g id="Слой_1-2" data-name="Слой 1"><path class="cls-1" d="M54.86,45.88a18.95,18.95,0,1,0,1.77,1.77l6.57-6.57a28.18,28.18,0,1,1-1.77-1.77l-6.57,6.57ZM47.76,53a8.92,8.92,0,1,0,1.77,1.77l5.33-5.33a16.45,16.45,0,1,1-1.77-1.77L47.76,53Zm-6.22,8a1.25,1.25,0,0,0,1.77,0l4.43-4.43A6.4,6.4,0,1,1,46,54.76l-4.43,4.43a1.25,1.25,0,0,0,0,1.77Zm.88-40.81A39.78,39.78,0,0,1,69.74,31l-6.55,6.55A30.68,30.68,0,1,0,65,39.31l6.55-6.55A39.9,39.9,0,1,1,42.43,20.15Zm31.14-6.09,10.5-10.5,3.29,9.82-10.5,10.5-3.29-9.82Zm25.38,4.38-10.5,10.5-9.82-3.29,10.49-10.5,9.82,3.29ZM42.43,102.5A42.39,42.39,0,0,0,73.28,31l3.37-3.37,11.74,3.93a1.25,1.25,0,0,0,1.28-.3l12.47-12.47a1.25,1.25,0,0,0-.49-2.07L91.09,13.18l2.73-2.73A1.25,1.25,0,0,0,92,8.68l-2.73,2.73L85.79.86a1.24,1.24,0,0,0-.9-.82,1.22,1.22,0,0,0-1.17.33L71.25,12.84a1.25,1.25,0,0,0-.3,1.28l3.93,11.73-3.37,3.37A42.41,42.41,0,1,0,42.43,102.5Z"/></g></g></svg>