<svg xmlns="http://www.w3.org/2000/svg" viewBox="0 0 286.41 286.41">
    <defs>
        <style>
            .cls-1{fill:#f68725;}
        </style>
    </defs>
    <title>built-in-themes</title>
    <g id="Слой_2" data-name="Слой 2">
        <g id="Слой_1-2" data-name="Слой 1">
            <path class="cls-1" d="M47.49,39.23a4.2,4.2,0,0,0,4.2,4.2H52a4.2,4.2,0,0,0,4.2-4.2c0-5.59-8.67-5.6-8.67,0Z"/>
            <path class="cls-1" d="M65.95,43.42h.28a4.2,4.2,0,0,0,4.2-4.2c0-5.59-8.67-5.6-8.67,0a4.2,4.2,0,0,0,4.2,4.2Z"/>
            <path class="cls-1" d="M37.42,35a4.2,4.2,0,0,0,0,8.39h.28a4.2,4.2,0,1,0,0-8.39Z"/>
            <path class="cls-1" d="M241.32,43.42a4.2,4.2,0,1,0,0-8.39H90a4.2,4.2,0,1,0,0,8.39Z"/>
            <path class="cls-1" d="M250.19,0H74.83a4.2,4.2,0,0,0,0,8.39H250.19A27.86,27.86,0,0,1,278,36.22V61.89H8.39V36.22A27.86,27.86,0,0,1,36.22,8.39h19a4.2,4.2,0,0,0,0-8.39h-19A36.26,36.26,0,0,0,0,36.22v214a36.26,36.26,0,0,0,36.22,36.22H185.93a4.2,4.2,0,0,0,0-8.39H36.22A27.86,27.86,0,0,1,8.39,250.19V70.28H278V250.19A27.86,27.86,0,0,1,250.19,278H205.51a4.2,4.2,0,0,0,0,8.39h44.68a36.26,36.26,0,0,0,36.22-36.22v-214A36.26,36.26,0,0,0,250.19,0Z"/>
            <path class="cls-1" d="M250,211.44H240a98.1,98.1,0,0,0-12.88-31.11l7.09-7.09a10.83,10.83,0,0,0,0-15.31L218.59,142.3a10.83,10.83,0,0,0-15.3,0l-7.09,7.09a98.11,98.11,0,0,0-31.11-12.88v-10a10.83,10.83,0,0,0-10.82-10.82H132.15a10.83,10.83,0,0,0-10.82,10.82v10A98.11,98.11,0,0,0,90.22,149.4l-7.09-7.09a10.82,10.82,0,0,0-15.3,0L52.19,157.94a10.83,10.83,0,0,0,0,15.3l7.09,7.09A98.11,98.11,0,0,0,46.4,211.44h-10a10.84,10.84,0,0,0-10.82,10.82v22.11a10.83,10.83,0,0,0,10.82,10.82h10A98.13,98.13,0,0,0,54.58,278h7.82a91.39,91.39,0,0,1-9.8-26.94,3.45,3.45,0,0,0-3.39-2.79H36.37a3.92,3.92,0,0,1-3.91-3.91V222.27a3.92,3.92,0,0,1,3.91-3.91H49.2a3.46,3.46,0,0,0,3.39-2.79,91.37,91.37,0,0,1,14-33.76,3.45,3.45,0,0,0-.42-4.37l-9.07-9.08a3.92,3.92,0,0,1,0-5.54l15.63-15.63a3.91,3.91,0,0,1,5.54,0l9.07,9.07a3.45,3.45,0,0,0,4.37.42,91.35,91.35,0,0,1,33.76-14,3.45,3.45,0,0,0,2.79-3.39V126.48a3.92,3.92,0,0,1,3.91-3.92h22.11a3.92,3.92,0,0,1,3.91,3.92v12.84a3.46,3.46,0,0,0,2.8,3.39,91.39,91.39,0,0,1,33.76,14,3.45,3.45,0,0,0,4.37-.42l9.07-9.07a3.91,3.91,0,0,1,5.54,0l15.63,15.63a3.92,3.92,0,0,1,0,5.54l-9.07,9.07a3.45,3.45,0,0,0-.42,4.37,91.34,91.34,0,0,1,14,33.76,3.45,3.45,0,0,0,3.39,2.79H250a3.92,3.92,0,0,1,3.91,3.91v22.11a3.92,3.92,0,0,1-3.91,3.91H237.2a3.46,3.46,0,0,0-3.39,2.79A91.4,91.4,0,0,1,224,278h7.82A98.1,98.1,0,0,0,240,255.19h10a10.83,10.83,0,0,0,10.82-10.82V222.27A10.84,10.84,0,0,0,250,211.44Z"/>
            <path class="cls-1" d="M80.34,233.32a62.9,62.9,0,0,1,87.32-57.92,3.45,3.45,0,1,0,2.69-6.36A69.78,69.78,0,0,0,89,277.19a3.44,3.44,0,0,0,1,.82h3.44a3.52,3.52,0,0,0,.46-.31,3.45,3.45,0,0,0,.51-4.86,63,63,0,0,1-14-39.53Z"/>
            <path class="cls-1" d="M203,204.36a3.46,3.46,0,0,0-1.84,4.53A62.85,62.85,0,0,1,187.35,278h9.37A69.75,69.75,0,0,0,207.5,206.2a3.46,3.46,0,0,0-4.53-1.84Z"/>
            <path class="cls-1" d="M182.71,184.42a63.33,63.33,0,0,1,9.39,9.39,3.45,3.45,0,0,0,5.37-4.34,70.2,70.2,0,0,0-10.42-10.42,3.45,3.45,0,1,0-4.34,5.37Z"/>
            <path class="cls-1" d="M143.2,178.29A55,55,0,0,0,111.14,278h14.24A48.12,48.12,0,1,1,161,278h14.24a55,55,0,0,0-32.06-99.73Z"/>
        </g>
    </g>
</svg>