<svg xmlns="http://www.w3.org/2000/svg" viewBox="0 0 512 512"><defs><style>.cls-1{fill:#f68725;}</style></defs><title>full-compatibility</title><g id="Слой_2" data-name="Слой 2"><g id="Capa_1" data-name="Capa 1"><path class="cls-1" d="M512,215.83a12.51,12.51,0,0,1-12.51,12.81H428.44v9.6c0,16.66-13.29,30.69-29.61,31.26l-1.13,0A30.73,30.73,0,0,1,367,238.79V228.64H295.87a12.52,12.52,0,0,1-12.5-12.5V144.23a10.51,10.51,0,0,1,10.5-10.5h14.65a15.73,15.73,0,1,0,0-31.45H293.87a10.51,10.51,0,0,1-10.5-10.5V12.51A12.52,12.52,0,0,1,296.18,0,219.6,219.6,0,0,1,380.1,18.68,7.5,7.5,0,1,1,374,32.4a204.55,204.55,0,0,0-75.67-17.33V87.27h10.15a30.73,30.73,0,1,1,0,61.46H298.37v64.91h76.12a7.5,7.5,0,0,1,7.5,7.5v17.65a15.73,15.73,0,0,0,16.31,15.72c8.35-.3,15.15-7.6,15.15-16.27v-17.1a7.5,7.5,0,0,1,7.5-7.5h76A205.16,205.16,0,0,0,396.26,43.87,7.5,7.5,0,1,1,403.94,31,221.09,221.09,0,0,1,512,215.83Zm-73.23,71.24a12.42,12.42,0,0,1,3.56,9A221.2,221.2,0,0,1,221.19,512a222.37,222.37,0,0,1-50-5.68,7.5,7.5,0,0,1,3.38-14.62,206.9,206.9,0,0,0,39.14,5.16V428.38H203.54a30.73,30.73,0,0,1,0-61.46h10.15V298.31H140.58a10.51,10.51,0,0,1-10.5-10.5v-14.1c0-8.68-6.79-16-15.15-16.27a15.73,15.73,0,0,0-16.31,15.72v14.65a10.51,10.51,0,0,1-10.5,10.5h-73c3,82.53,56,156.51,133.7,185.64a7.5,7.5,0,1,1-5.26,14A221.23,221.23,0,0,1,215.89,69.67a12.51,12.51,0,0,1,12.81,12.5v74.77h10.15a30.73,30.73,0,0,1,30.71,31.84c-.58,16.33-14.61,29.62-31.26,29.62h-9.6v64.9h73.12a10.51,10.51,0,0,1,10.5,10.5v14.65a15.73,15.73,0,0,0,31.45,0V293.81a10.51,10.51,0,0,1,10.5-10.5h75.55A12.4,12.4,0,0,1,438.77,287.07ZM213.69,283.3v-69.4a10.51,10.51,0,0,1,10.5-10.5h14.1c8.68,0,16-6.79,16.27-15.15A15.73,15.73,0,0,0,238.85,172H224.19a10.51,10.51,0,0,1-10.5-10.5V84.75C106.4,88.62,19.08,176.47,15.15,283.3H83.62V273.15a30.73,30.73,0,0,1,31.84-30.71c16.33.58,29.62,14.61,29.62,31.26v9.6h68.62Zm213.56,15H358.77v10.15a30.73,30.73,0,0,1-61.46,0V298.31H228.7v73.11a10.51,10.51,0,0,1-10.5,10.5H203.54a15.73,15.73,0,0,0,0,31.45h14.65a10.51,10.51,0,0,1,10.5,10.5v73C335.53,492.92,423.38,405.6,427.25,298.31Z"/></g></g></svg>