<svg xmlns="http://www.w3.org/2000/svg" style="fill:#2b4666" viewBox="0 0 18.9 18.9"><title>pitch-free</title><g id="Слой_2" data-name="Слой 2"><g id="Слой_1-2" data-name="Слой 1"><path d="M9.45,0A9.45,9.45,0,1,0,18.9,9.45,9.45,9.45,0,0,0,9.45,0Zm2,14.65-1.16.44a3,3,0,0,1-1,.15,2,2,0,0,1-1.37-.43,1.38,1.38,0,0,1-.49-1.09,4.15,4.15,0,0,1,0-.53,6.16,6.16,0,0,1,.12-.61l.61-2.15c.05-.21.1-.4.14-.58a2.72,2.72,0,0,0,.05-.51.78.78,0,0,0-.17-.57,1,1,0,0,0-.65-.16A1.78,1.78,0,0,0,7,8.67l-.42.14.16-.66c.4-.16.78-.3,1.14-.42a3.34,3.34,0,0,1,1-.18A2,2,0,0,1,10.3,8a1.41,1.41,0,0,1,.48,1.1c0,.09,0,.26,0,.49a3.36,3.36,0,0,1-.12.65L10,12.37c-.05.17-.09.37-.14.59a3.1,3.1,0,0,0-.06.5A.73.73,0,0,0,10,14a1.06,1.06,0,0,0,.66.16,1.92,1.92,0,0,0,.5-.08,2.88,2.88,0,0,0,.41-.14Zm-.11-8.7a1.53,1.53,0,0,1-2,0,1.27,1.27,0,0,1-.43-1,1.28,1.28,0,0,1,.43-1,1.53,1.53,0,0,1,2,0,1.27,1.27,0,0,1,.42,1,1.26,1.26,0,0,1-.42,1Zm0,0"/></g></g></svg>