<svg xmlns="http://www.w3.org/2000/svg" style="fill:#2b4666" viewBox="0 0 36.37 41.69"><title>pitch-flag</title><g id="Слой_2" data-name="Слой 2"><g id="Слой_1-2" data-name="Слой 1"><path d="M36,5.33a1.31,1.31,0,0,0-1-.4,3.55,3.55,0,0,0-1.16.44c-.59.3-1.21.63-1.87,1a13.47,13.47,0,0,1-2.33,1,8,8,0,0,1-2.5.45,4.11,4.11,0,0,1-1.87-.41,38.45,38.45,0,0,0-4.65-1.87,14.21,14.21,0,0,0-4.25-.61A20.17,20.17,0,0,0,7.44,7.48c-.69.35-1.18.61-1.5.81L5.62,6a3.39,3.39,0,1,0-4,.33L6.22,40a2,2,0,0,0,2,1.73l.27,0a2,2,0,0,0,1.71-2.25L8.34,25.89A20.21,20.21,0,0,1,17,23.39a9.9,9.9,0,0,1,3,.46,13,13,0,0,1,2.45,1,14.44,14.44,0,0,0,2.31,1,7.87,7.87,0,0,0,2.63.47,17.19,17.19,0,0,0,7.84-2.47,3.09,3.09,0,0,0,.84-.59,1.16,1.16,0,0,0,.27-.82V6.29a1.31,1.31,0,0,0-.4-1Zm0,0"/></g></g></svg>