<svg xmlns="http://www.w3.org/2000/svg" viewBox="0 0 512 512">
    <defs>
        <style>
            .cls-1{fill:#f68725;}
        </style>
    </defs>
    <title>single-click</title>
    <g id="Слой_2" data-name="Слой 2">
        <g id="Capa_1" data-name="Capa 1">
            <path class="cls-1" d="M84.89,70.13a7.5,7.5,0,0,0,7.5,7.5h.5a7.5,7.5,0,0,0,7.5-7.5C100.39,60.13,84.89,60.11,84.89,70.13Z"/>
            <path class="cls-1" d="M117.89,77.63h.5a7.5,7.5,0,0,0,7.5-7.5c0-10-15.5-10-15.5,0A7.5,7.5,0,0,0,117.89,77.63Z"/>
            <path class="cls-1" d="M66.89,62.63a7.5,7.5,0,0,0,0,15h.5a7.5,7.5,0,0,0,0-15Z"/>
            <path class="cls-1" d="M431.39,77.63a7.5,7.5,0,1,0,0-15H160.93a7.5,7.5,0,1,0,0,15Z"/>
            <path class="cls-1" d="M447.25,0H133.76a7.5,7.5,0,1,0,0,15H447.25A49.81,49.81,0,0,1,497,64.75v45.88H15V64.75A49.81,49.81,0,0,1,64.75,15h34a7.5,7.5,0,0,0,0-15h-34A64.83,64.83,0,0,0,0,64.75V447.25A64.83,64.83,0,0,0,64.75,512H332.38a7.5,7.5,0,0,0,0-15H64.75A49.81,49.81,0,0,1,15,447.25V125.63H497V447.25A49.81,49.81,0,0,1,447.25,497H367.38a7.5,7.5,0,1,0,0,15h79.87A64.83,64.83,0,0,0,512,447.25V64.75A64.83,64.83,0,0,0,447.25,0Z"/>
            <path class="cls-1" d="M317.47,176.67a49.75,49.75,0,0,0-32.24-11.76c-106,0-100.36-.12-102.36.21a16.17,16.17,0,0,0-13.63,16V351a16.18,16.18,0,0,0,16.16,16.16h58.34v19.26l-.22-.22a20.86,20.86,0,0,0-14.85-6.15c-18.54,0-28.12,22.58-14.85,35.85l28.74,28.74a31.39,31.39,0,0,0,44.37,0l28.74-28.74c13.2-13.21,3.75-35.85-14.85-35.85A20.87,20.87,0,0,0,286,386.21l-.22.22V367.18h55.48A16.18,16.18,0,0,0,357.38,351v-61.1a7.5,7.5,0,0,0-15,0c-.52,62.08,1.09,62.26-1.16,62.26H285.73v-19.9a21,21,0,0,0-42,0v19.9c-59.08-.52-59.5,1.1-59.5-1.16.36-180.48-1-170.93,1.16-171.1,39.56,0,99.65,0,101,0,2.52,5.37,1.79,6.69,1.83,35.68a19.44,19.44,0,0,0,17.09,19.29c4,.47,34.39-.07,37,.25v19.75a7.5,7.5,0,1,0,15,0c-1.17-15.12,3.89-30.68-8.69-46.83C345.67,204.21,319,177.95,317.47,176.67ZM245.93,409.85a7.51,7.51,0,0,0,12.8-5.3V332.28a6,6,0,0,1,12,0v72.27a7.51,7.51,0,0,0,12.8,5.3l13-13a6,6,0,0,1,10.24,4.24c0,4.38-1.58,3.22-30.49,33a16.39,16.39,0,0,1-23.16,0l-28.74-28.74a6,6,0,0,1,4.24-10.24C232.87,395.06,233.36,398,245.93,409.85ZM307,220a4.43,4.43,0,0,1-3.73-4.37c0-30.45.08-28.57-.15-30.81,5.39,3.18,5.75,4.18,31.61,30a26.15,26.15,0,0,1,4,5.2C304.93,220.05,307.79,220.1,307,220Z"/>
        </g>
    </g>
</svg>