<svg xmlns="http://www.w3.org/2000/svg" style="fill:#2b4666" viewBox="0 0 48 46.4"><title>pitch-support</title><g id="Слой_2" data-name="Слой 2"><g id="Слой_1-2" data-name="Слой 1"><path d="M35.26,11.2H4.74A4.75,4.75,0,0,0,0,15.94V32.86A4.75,4.75,0,0,0,4.74,37.6H9.6v8a.8.8,0,0,0,.51.75.82.82,0,0,0,.29,0,.8.8,0,0,0,.59-.26l7.76-8.54h16.5A4.75,4.75,0,0,0,40,32.86V15.95a4.75,4.75,0,0,0-4.74-4.75Zm0,0"/><path d="M43.26,0H12.74A4.74,4.74,0,0,0,8,4.74V8.8a.8.8,0,0,0,.8.8H35.73a5.87,5.87,0,0,1,5.88,5.87V25.6a.79.79,0,0,0,.8.8h3.26A2.34,2.34,0,0,0,48,24.06V4.74A4.74,4.74,0,0,0,43.26,0Zm0,0"/></g></g></svg>