<svg xmlns="http://www.w3.org/2000/svg" viewBox="0 0 288.41 288.35"><defs><style>.cls-1{fill:#f57f17;}.cls-2{fill:#f57f17;}</style></defs><title>pitch-inside-management</title><g id="Слой_2" data-name="Слой 2"><g id="Слой_1-2" data-name="Слой 1"><path class="cls-1" d="M44.74,37a4,4,0,0,0,4,4H49a4,4,0,0,0,4-4c0-5.27-8.17-5.28-8.17,0Z"/><path class="cls-1" d="M62.13,40.91h.26a4,4,0,0,0,4-4c0-5.27-8.17-5.28-8.17,0a4,4,0,0,0,4,4Z"/><path class="cls-1" d="M35.25,33a4,4,0,1,0,0,7.91h.26a4,4,0,1,0,0-7.91Z"/><path class="cls-1" d="M227.36,40.91a4,4,0,1,0,0-7.91H84.82a4,4,0,1,0,0,7.91Z"/><path class="cls-1" d="M235.71,0H70.5a4,4,0,0,0,0,7.91H235.71a26.25,26.25,0,0,1,26.22,26.22V58.31H7.91V34.13A26.25,26.25,0,0,1,34.13,7.91H52.05a4,4,0,0,0,0-7.91H34.13A34.17,34.17,0,0,0,0,34.13V235.71a34.17,34.17,0,0,0,34.13,34.13h164a4,4,0,1,0,0-7.91h-164A26.25,26.25,0,0,1,7.91,235.71V66.21h254v169.5a26.13,26.13,0,0,1-1.19,7.81l6,6.32a33.92,33.92,0,0,0,3.07-14.13V34.13A34.17,34.17,0,0,0,235.71,0Zm8.47,260.53a26.11,26.11,0,0,1-8.47,1.4H193.62a4,4,0,1,0,0,7.91h42.09a33.93,33.93,0,0,0,14.15-3.07l-5.68-6.24Z"/><path class="cls-2" d="M34.75,199.63a6.4,6.4,0,1,0,6.4,6.4,6.41,6.41,0,0,0-6.4-6.4Zm0,20.29A13.89,13.89,0,1,1,48.65,206a13.91,13.91,0,0,1-13.9,13.89Z"/><path class="cls-2" d="M89.64,120.47a6.4,6.4,0,1,0,6.4,6.4,6.41,6.41,0,0,0-6.4-6.4Zm0,20.29a13.89,13.89,0,1,1,13.89-13.89,13.91,13.91,0,0,1-13.89,13.89Z"/><path class="cls-2" d="M174.87,159.71a12.34,12.34,0,1,0,12.35,12.35,12.36,12.36,0,0,0-12.35-12.35Zm0,32.18a19.84,19.84,0,1,1,19.84-19.84,19.86,19.86,0,0,1-19.84,19.84Z"/><path class="cls-2" d="M238.69,88.75a6.4,6.4,0,1,0,6.4,6.4,6.4,6.4,0,0,0-6.4-6.4Zm0,20.29a13.89,13.89,0,1,1,13.9-13.89A13.91,13.91,0,0,1,238.69,109Z"/><path class="cls-2" d="M157.66,166.29a3.73,3.73,0,0,1-1.78-.45L97.37,134.12a3.75,3.75,0,1,1,3.57-6.59l58.51,31.71a3.75,3.75,0,0,1-1.79,7Z"/><path class="cls-2" d="M187.39,161.53a3.75,3.75,0,0,1-2.89-6.13l42.58-51.53a3.75,3.75,0,1,1,5.78,4.77l-42.58,51.53a3.74,3.74,0,0,1-2.89,1.36Z"/><path class="cls-2" d="M174.87,128.73a44.52,44.52,0,0,0,0,89h0a44.52,44.52,0,0,0,0-89Zm0,96.53h0A52,52,0,1,1,211.65,210a51.67,51.67,0,0,1-36.78,15.24Z"/><path class="cls-2" d="M220,231.84l46.71,46.71a7.92,7.92,0,0,0,5.64,2.31h0a8.61,8.61,0,0,0,8.55-8.45,7.9,7.9,0,0,0-2.31-5.74l-46.23-46.23L220,231.84Zm52.35,56.51h0a15.36,15.36,0,0,1-10.94-4.5L209.2,231.62,232.58,210l51.32,51.32a15.35,15.35,0,0,1,4.51,11.14,16.11,16.11,0,0,1-16,15.85Z"/><path class="cls-2" d="M221.57,226.07a3.74,3.74,0,0,1-2.65-1.1l-13.36-13.36a3.75,3.75,0,1,1,5.3-5.3l13.36,13.36a3.75,3.75,0,0,1-2.65,6.4Z"/><path class="cls-2" d="M39.39,200.35a3.75,3.75,0,0,1-2.48-5.9l43.62-60.39a3.75,3.75,0,0,1,6.08,4.38L43,198.83a3.75,3.75,0,0,1-3.6,1.52Z"/></g></g></svg>