<svg xmlns="http://www.w3.org/2000/svg" viewBox="0 0 281.98 282.01"><defs><style>.cls-1{fill:#f57f17;}</style></defs><title>pitch-inside-customization</title><g id="Слой_2" data-name="Слой 2"><g id="Слой_1-2" data-name="Слой 1"><path class="cls-1" d="M92.15,260.52a50.1,50.1,0,0,1-47.36,13.12l36.49-36.49a3.45,3.45,0,0,0,.81-3.61A56,56,0,0,0,48.45,199.9a3.45,3.45,0,0,0-3.61.8L8.35,237.19a49.93,49.93,0,0,1,65.6-59l.26.09a49.55,49.55,0,0,1,17.95,11.53A3.45,3.45,0,0,0,97,185a56.45,56.45,0,0,0-15.64-11.05l96.08-96.08h0l.06-.06a3.34,3.34,0,0,0,.26-.39,3.26,3.26,0,0,0,.46-.69,3.12,3.12,0,0,0,.15-.63,3.4,3.4,0,0,0,.13-.65,175.63,175.63,0,0,0-.21-1.29,49.12,49.12,0,0,1,11.51-52.63A50.14,50.14,0,0,1,237.19,8.35L200.7,44.84a3.45,3.45,0,0,0-.81,3.61,56,56,0,0,0,33.65,33.65,3.46,3.46,0,0,0,3.61-.81L273.63,44.8a49.94,49.94,0,0,1-83.8,47.36A3.45,3.45,0,0,0,185,97a56.9,56.9,0,0,0,16.89,11.62l-96.92,96.92a3.36,3.36,0,0,0-.57.85l0,.05a3.4,3.4,0,0,0-.1,2.92,49.69,49.69,0,0,1-12.07,51.11Zm95.43-127.85a3.45,3.45,0,1,0-5,4.73l90.57,96.28L233,273.75,137.88,184.2a3.44,3.44,0,0,0-1.13-.7l20.85-20.84a3.37,3.37,0,0,0,.77,1.22L234.7,240.2a3.45,3.45,0,1,0,4.87-4.87L163.24,159a3.37,3.37,0,0,0-1.22-.77l46.9-46.89a57.12,57.12,0,0,0,16.25,2.36,56.83,56.83,0,0,0,53.31-76.57,3.45,3.45,0,0,0-5.67-1.25l-38.95,39a49.11,49.11,0,0,1-26.7-26.7l39-39a3.45,3.45,0,0,0-1.25-5.67A57,57,0,0,0,185,16.6a55.89,55.89,0,0,0-13.81,57.8L134,111.58a3.3,3.3,0,0,0-.68-1L66.57,45.63,55.38,34.45,46,17.53a3.45,3.45,0,0,0-2.09-1.65L9.39,6.28a3.45,3.45,0,0,0-4.25,4.24L14.74,45a3.44,3.44,0,0,0,1.65,2.09l16.92,9.41,10.9,10.9,68.12,66.16a3.45,3.45,0,0,0,4.79-5L49,62.51l-11.2-11.2a3.49,3.49,0,0,0-.76-.57L21,41.79,13.42,14.56l27.22,7.58,8.95,16.07a3.35,3.35,0,0,0,.57.76l78.3,76.54a3.36,3.36,0,0,0,.95.61l-55,55A56.81,56.81,0,0,0,3.5,244.87a3.45,3.45,0,0,0,5.67,1.25l38.95-38.95a49,49,0,0,1,26.7,26.7L35.87,272.81a3.45,3.45,0,0,0,1.24,5.67,56.81,56.81,0,0,0,74.18-69.53l21-21a3.4,3.4,0,0,0,.83,1.3l97.6,91.84a3.44,3.44,0,0,0,4.8-.07l44.81-44.81a3.45,3.45,0,0,0,.07-4.8l-92.86-98.71Z"/></g></g></svg>