<?xml version="1.0" encoding="UTF-8"?>
<!DOCTYPE svg PUBLIC "-//W3C//DTD SVG 1.1//EN" "http://www.w3.org/Graphics/SVG/1.1/DTD/svg11.dtd">
<!-- Creator: CorelDRAW 2017 -->
<svg xmlns="http://www.w3.org/2000/svg" xml:space="preserve" width="177px" height="40px" version="1.1" style="shape-rendering:geometricPrecision; text-rendering:geometricPrecision; image-rendering:optimizeQuality; fill-rule:evenodd; clip-rule:evenodd"
viewBox="0 0 26463 4784"
 xmlns:xlink="http://www.w3.org/1999/xlink">
 <defs>
  <style type="text/css">
   <![CDATA[
    .fil1 {fill:#FEFEFE;fill-rule:nonzero}
    .fil2 {fill:#FEFEFE;fill-rule:nonzero}
    .fil0 {fill:#516FAA;fill-rule:nonzero}
   ]]>
  </style>
 </defs>
 <g id="Слой_x0020_1">
  <metadata id="CorelCorpID_0Corel-Layer"/>
  <g id="_1558802674800">
   <path class="fil0" d="M4454 4784l-4124 0c-181,0 -330,-148 -330,-330l0 -4124c0,-181 148,-330 330,-330l4124 0c181,0 330,148 330,330l0 4124c0,181 -148,330 -330,330z"/>
   <path class="fil1" d="M4042 825l0 825 -742 0c-91,0 -165,74 -165,165l0 495 825 0 0 825 -825 0 0 1650 -825 0 0 -1650 -660 0 0 -825 660 0 0 -495c0,-520 396,-949 907,-990l825 0z"/>
  </g>
  <g id="_1558802676336">
   <path class="fil2" d="M7515 1428c-242,0 -312,108 -312,344l0 393 646 0 -65 635 -581 0 0 1926 -775 0 0 -1926 -522 0 0 -635 522 0 0 -382c0,-640 258,-979 979,-979 156,0 339,11 452,27l0 597 -344 0z"/>
   <path class="fil2" d="M8677 3536c0,382 140,635 500,635 317,0 479,-231 479,-597l0 -258c0,-366 -161,-597 -479,-597 -360,0 -500,253 -500,635l0 183zm-775 -172c0,-715 339,-1253 1049,-1253 387,0 624,199 737,446l0 -393 742 0 0 2560 -742 0 0 -387c-108,247 -350,441 -737,441 -710,0 -1049,-538 -1049,-1253l0 -161z"/>
   <path class="fil2" d="M12044 2111c301,0 586,64 742,172l-172 549c-118,-59 -312,-118 -516,-118 -420,0 -602,242 -602,656l0 150c0,414 183,656 602,656 204,0 398,-59 516,-118l172 549c-156,108 -441,172 -742,172 -909,0 -1323,-490 -1323,-1275l0 -118c0,-785 414,-1275 1323,-1275z"/>
   <path class="fil2" d="M13663 3208l936 0 0 -65c0,-280 -113,-500 -452,-500 -350,0 -484,221 -484,565zm-775 333l0 -226c0,-726 414,-1205 1259,-1205 796,0 1145,484 1145,1194l0 409 -1630 0c16,350 172,506 602,506 290,0 597,-59 823,-156l140 532c-204,108 -624,188 -995,188 -979,0 -1345,-489 -1345,-1242z"/>
   <path class="fil2" d="M17390 3348c0,-361 -140,-629 -511,-629 -317,0 -490,226 -490,591l0 269c0,366 172,592 490,592 371,0 511,-269 511,-629l0 -193zm775 177c0,715 -344,1253 -1054,1253 -387,0 -656,-194 -764,-441l0 387 -731 0 0 -3846 775 -70 0 1710c113,-226 360,-409 721,-409 710,0 1054,538 1054,1253l0 161z"/>
   <path class="fil2" d="M20197 3326c0,-339 -140,-608 -500,-608 -361,0 -500,269 -500,608l0 237c0,339 140,608 500,608 360,0 500,-269 500,-608l0 -237zm-1775 183l0 -129c0,-737 419,-1269 1275,-1269 855,0 1275,533 1275,1269l0 129c0,737 -420,1269 -1275,1269 -855,0 -1275,-532 -1275,-1269z"/>
   <path class="fil2" d="M23005 3326c0,-339 -140,-608 -500,-608 -361,0 -500,269 -500,608l0 237c0,339 140,608 500,608 360,0 500,-269 500,-608l0 -237zm-1775 183l0 -129c0,-737 419,-1269 1275,-1269 855,0 1275,533 1275,1269l0 129c0,737 -420,1269 -1275,1269 -855,0 -1275,-532 -1275,-1269z"/>
   <polygon class="fil2" points="24844,3385 25608,2165 26431,2165 25629,3429 26463,4725 25640,4725 24844,3472 24844,4725 24070,4725 24070,879 24844,809 "/>
  </g>
 </g>
</svg>
