<?xml version="1.0" encoding="utf-8"?>
<!-- Generator: Adobe Illustrator 19.2.0, SVG Export Plug-In . SVG Version: 6.00 Build 0)  -->
<svg version="1.1" id="Слой_1" xmlns="http://www.w3.org/2000/svg" height="29" xmlns:xlink="http://www.w3.org/1999/xlink" x="0px" y="0px"
	 viewBox="0 0 612 92.5" style="enable-background:new 0 0 612 92.5;" xml:space="preserve">
<style type="text/css">
	.st0{fill:#FF8117;}
	.st1{fill:#FF2F22;}
	.st2{fill:#FFFFFF;}
</style>
<path class="st0" d="M199.1,70.9l-2.8-7.3h-23.6l-2.8,7.4c-0.7,2.1-1.6,4-2.8,5.9c-0.9,1.1-2.3,1.7-3.8,1.5c-1.5,0-2.9-0.6-3.9-1.6
	c-1.1-0.9-1.7-2.3-1.7-3.7c0-0.8,0.1-1.7,0.4-2.5c0.3-0.9,0.7-2,1.3-3.5l14.8-37.6c0.4-1.1,0.9-2.4,1.5-3.9c0.5-1.3,1.1-2.6,1.9-3.8
	c0.7-1,1.6-1.8,2.6-2.4c1.2-0.7,2.6-1,4-0.9c1.4-0.1,2.8,0.3,4.1,0.9c1.1,0.6,2,1.4,2.6,2.4c0.7,1,1.3,2,1.7,3.1
	c0.5,1.1,1.1,2.6,1.8,4.5l15.1,37.4c0.9,2,1.6,4.1,1.8,6.2c0,1.4-0.6,2.7-1.7,3.7c-1.1,1.1-2.5,1.7-4.1,1.7c-0.8,0-1.6-0.1-2.4-0.5
	c-0.6-0.3-1.2-0.8-1.7-1.3c-0.6-0.8-1.1-1.7-1.4-2.6C199.9,72.8,199.5,71.8,199.1,70.9L199.1,70.9L199.1,70.9z M175.9,54.8h17.3
	l-8.7-23.9L175.9,54.8z"/>
<path class="st0" d="M219.5,71.9V25.1c-0.1-1.8,0.4-3.5,1.4-4.9c1-1.1,2.4-1.7,3.9-1.7c1.5-0.1,2.9,0.5,3.9,1.6
	c1.1,1.4,1.6,3.1,1.5,4.9v46.8c0.1,1.8-0.4,3.5-1.5,4.9c-1,1.1-2.4,1.7-3.9,1.6c-1.5,0-2.9-0.6-3.8-1.7
	C219.9,75.4,219.4,73.7,219.5,71.9z"/>
<path class="st0" d="M252.2,40.7v31.2c0.1,1.8-0.4,3.5-1.5,4.9c-1,1.1-2.4,1.7-3.9,1.7s-2.9-0.6-3.8-1.7c-1.1-1.4-1.6-3.1-1.5-4.9
	V41c-0.1-1.7,0.4-3.5,1.5-4.8c1-1.1,2.4-1.7,3.8-1.6c1.5,0,2.9,0.5,3.9,1.6C251.8,37.4,252.3,39.1,252.2,40.7L252.2,40.7z
	 M246.9,29.5c-1.4,0-2.8-0.5-3.8-1.4c-1.1-1-1.7-2.4-1.6-3.9c0-1.4,0.6-2.8,1.6-3.8s2.4-1.5,3.8-1.5c1.4,0,2.7,0.5,3.7,1.3
	c1.1,1,1.7,2.4,1.6,3.9c0.1,1.5-0.5,2.9-1.6,3.9C249.6,29.1,248.3,29.6,246.9,29.5z"/>
<path class="st1" d="M271.4,19.5h15.3c3.4-0.1,6.9,0.3,10.2,1.1c2.9,0.8,5.5,2.2,7.8,4.2c6,5.2,9.1,13,9.1,23.6
	c0,3.2-0.3,6.4-0.9,9.5c-0.6,2.7-1.5,5.3-2.8,7.8c-1.3,2.3-2.9,4.4-4.9,6.2c-1.5,1.4-3.2,2.5-5.1,3.3c-1.9,0.9-3.9,1.5-6,1.8
	c-2.4,0.4-4.8,0.5-7.2,0.5h-15.3c-1.7,0.1-3.3-0.2-4.8-1c-1-0.6-1.8-1.6-2.1-2.7c-0.4-1.5-0.5-3-0.5-4.6V26.7
	c-0.6-3.3,1.6-6.6,4.9-7.2C269.9,19.4,270.7,19.4,271.4,19.5L271.4,19.5L271.4,19.5z M276,28.8v39.4h8.9c1.9,0,3.5-0.1,4.6-0.2
	c1.2-0.1,2.3-0.4,3.4-0.8s2.2-1,3.1-1.8c3.9-3.3,5.9-9,5.9-17.2c0-5.7-0.9-10-2.6-12.9c-1.4-2.5-3.7-4.5-6.4-5.4
	c-3-0.8-6.1-1.2-9.2-1.2L276,28.8L276,28.8L276,28.8z"/>
<path class="st1" d="M334.1,62.9v9c0.1,1.8-0.4,3.5-1.5,4.9c-1,1.1-2.4,1.7-3.9,1.6c-1.5,0-2.9-0.6-3.8-1.7
	c-1.1-1.4-1.6-3.1-1.5-4.9v-30c0-4.8,1.8-7.3,5.3-7.3c1.5-0.1,3,0.5,3.9,1.7c0.9,1.5,1.4,3.3,1.3,5c1-1.9,2.4-3.6,4-5
	c1.6-1.2,3.5-1.8,5.4-1.7c2.3,0,4.6,0.6,6.6,1.7c1.9,0.7,3.1,2.5,3.2,4.5c0,1.2-0.5,2.4-1.4,3.3c-0.8,0.8-1.8,1.3-2.9,1.3
	c-1-0.1-1.9-0.4-2.9-0.7c-1.3-0.4-2.7-0.7-4-0.7c-1.4-0.1-2.8,0.4-3.9,1.2c-1.1,1-1.9,2.3-2.3,3.7c-0.6,1.9-1,3.9-1.1,5.8
	C334.2,56.9,334.1,59.7,334.1,62.9z"/>
<path class="st1" d="M396.2,56.5c0,3-0.5,6-1.5,8.9c-0.9,2.6-2.4,5-4.4,7c-1.9,2-4.2,3.5-6.8,4.5c-2.8,1.1-5.9,1.6-8.9,1.6
	s-6-0.5-8.8-1.6c-5.2-2.1-9.2-6.2-11.1-11.5c-2-5.8-2-12.1,0-17.9c0.9-2.6,2.4-5,4.3-7s4.2-3.5,6.8-4.4c5.7-2.1,12-2.1,17.7,0
	c5.2,2,9.3,6.2,11.2,11.5C395.7,50.5,396.2,53.5,396.2,56.5L396.2,56.5L396.2,56.5z M385.3,56.5c0.2-3.7-0.8-7.3-2.9-10.3
	c-1.9-2.4-4.8-3.8-7.8-3.7c-2,0-3.9,0.5-5.6,1.6c-1.7,1.2-3,2.9-3.7,4.8c-1.7,4.8-1.7,10.1,0,14.9c0.7,1.9,2,3.6,3.7,4.8
	c1.7,1.1,3.6,1.7,5.6,1.7c3,0.1,6-1.3,7.8-3.7C384.5,63.8,385.5,60.2,385.3,56.5z"/>
<path class="st1" d="M414.6,40.6V42c1.7-2.2,3.9-4.1,6.3-5.5c2.3-1.2,4.8-1.8,7.4-1.8c3.2,0,6.4,0.9,9.2,2.6
	c2.9,1.8,5.2,4.4,6.6,7.5c1.7,3.7,2.5,7.7,2.4,11.7c0,3.1-0.4,6.2-1.4,9.2c-0.8,2.6-2.1,4.9-3.9,7c-1.6,1.9-3.6,3.3-5.8,4.3
	c-2.3,1-4.7,1.5-7.2,1.5c-2.7,0.1-5.4-0.6-7.8-1.9c-2.3-1.4-4.3-3.3-6-5.5v16.2c0,4.8-1.7,7.1-5.2,7.1c-1.6,0.2-3.2-0.5-4-1.8
	c-0.8-1.7-1.1-3.5-1-5.4V40.7c-0.1-1.6,0.4-3.3,1.4-4.6c0.9-1,2.3-1.6,3.7-1.5c1.4,0,2.8,0.5,3.7,1.6
	C414.2,37.4,414.7,39,414.6,40.6L414.6,40.6L414.6,40.6z M435.8,56.3c0.1-2.5-0.4-5-1.3-7.3c-0.7-1.9-2-3.5-3.6-4.7
	c-1.5-1.1-3.3-1.6-5.1-1.6c-2.9,0-5.7,1.3-7.5,3.5c-2,2.3-3.1,5.8-3.1,10.4c-0.2,3.6,0.9,7.1,3,10c1.8,2.3,4.6,3.6,7.6,3.6
	c1.8,0,3.5-0.5,5-1.6c1.6-1.2,2.9-2.8,3.7-4.7C435.4,61.5,435.8,58.9,435.8,56.3z"/>
<path class="st1" d="M490,64.4c0.3,5.6-3.3,10.7-8.6,12.5c-3.3,1.2-6.8,1.7-10.3,1.6c-3.4,0.1-6.8-0.5-10-1.8
	c-2.4-0.9-4.5-2.4-6.1-4.4c-1.2-1.5-1.9-3.4-2-5.3c0-1.1,0.4-2.2,1.3-3c0.8-0.9,2-1.3,3.2-1.3c0.9-0.1,1.9,0.2,2.6,0.8
	c0.7,0.7,1.3,1.5,1.7,2.3c1.9,3.9,6,6.1,10.3,5.7c1.9,0.1,3.7-0.4,5.3-1.4c1.2-0.7,2-1.9,2.1-3.3c0.1-1.7-0.7-3.3-2.1-4.2
	c-2.2-1.2-4.6-2-7.1-2.5c-3.1-0.7-6.1-1.7-9.1-2.9c-2.1-0.9-4.1-2.3-5.6-4c-1.4-1.7-2.2-3.9-2.1-6.1c0-2.2,0.7-4.3,1.9-6.1
	c1.4-2,3.4-3.6,5.7-4.6c2.9-1.2,6-1.8,9.1-1.7c2.5,0,5.1,0.3,7.5,0.9c2,0.5,3.9,1.3,5.6,2.3c1.3,0.8,2.5,1.9,3.4,3.3
	c0.7,1,1.1,2.2,1.2,3.5c0,1.1-0.4,2.3-1.3,3c-1,0.8-2.2,1.3-3.5,1.2c-1,0-2-0.3-2.8-0.9c-1-0.9-1.9-1.8-2.7-2.8
	c-0.8-1-1.8-1.9-2.9-2.5c-1.4-0.7-2.9-1-4.5-0.9c-1.7-0.1-3.4,0.4-4.9,1.2c-1.2,0.6-1.9,1.8-1.9,3.1c0,1.1,0.5,2.1,1.4,2.8
	c1.2,0.8,2.5,1.4,3.8,1.8c1.6,0.5,3.8,1.1,6.6,1.7c2.8,0.6,5.6,1.6,8.2,2.9c1.9,0.9,3.5,2.3,4.8,4C489.5,60.6,490.1,62.5,490,64.4z"
	/>
<path class="st1" d="M509.7,25.1v16c1.2-1.4,2.5-2.7,4-3.8c1.3-0.9,2.8-1.6,4.3-2.1c1.7-0.5,3.4-0.7,5.1-0.7c2.5,0,5.1,0.6,7.3,1.7
	c2.1,1.2,3.9,2.9,5,5.1c0.8,1.3,1.3,2.8,1.6,4.3c0.3,1.8,0.4,3.7,0.4,5.5v20.7c0.1,1.8-0.4,3.5-1.5,4.9c-1,1.1-2.4,1.7-3.9,1.7
	c-3.6,0-5.3-2.2-5.3-6.6V53.7c0.2-2.7-0.4-5.5-1.5-8c-1-1.9-3-2.8-5.9-2.8c-1.9,0-3.7,0.6-5.2,1.6c-1.6,1.1-2.8,2.7-3.5,4.5
	c-0.7,2.8-1,5.7-0.9,8.6v14.3c0.1,1.7-0.4,3.5-1.4,4.9c-1,1.1-2.5,1.8-4,1.7c-3.5,0-5.3-2.2-5.3-6.6V25.1c-0.1-1.8,0.4-3.5,1.4-4.9
	c1-1.1,2.4-1.7,3.9-1.6c1.5-0.1,3,0.5,4,1.7C509.3,21.6,509.8,23.3,509.7,25.1z"/>
<path class="st1" d="M558.9,40.7v31.2c0.1,1.8-0.4,3.5-1.5,4.9c-1,1.1-2.4,1.7-3.9,1.7s-2.9-0.6-3.8-1.7c-1.1-1.4-1.6-3.1-1.5-4.9
	V41c-0.1-1.7,0.4-3.5,1.5-4.8c1-1.1,2.4-1.7,3.8-1.6c1.5,0,2.9,0.5,3.9,1.6C558.4,37.4,559,39.1,558.9,40.7L558.9,40.7z M553.5,29.5
	c-1.4,0-2.8-0.5-3.8-1.4c-1.1-1-1.7-2.4-1.6-3.9c0-1.4,0.6-2.8,1.6-3.8s2.4-1.5,3.8-1.5c1.4,0,2.7,0.5,3.7,1.3
	c1.1,1,1.7,2.4,1.6,3.9c0.1,1.5-0.5,2.9-1.6,3.9C556.3,29.1,554.9,29.6,553.5,29.5z"/>
<path class="st1" d="M580,40.6V42c1.7-2.2,3.9-4.1,6.3-5.5c2.3-1.2,4.8-1.8,7.4-1.8c3.2,0,6.4,0.9,9.2,2.6c2.9,1.8,5.2,4.4,6.6,7.5
	c1.7,3.7,2.5,7.7,2.4,11.7c0,3.1-0.4,6.2-1.4,9.2c-0.8,2.6-2.1,4.9-3.9,7c-1.6,1.9-3.6,3.3-5.8,4.3c-2.3,1-4.7,1.5-7.2,1.5
	c-2.7,0.1-5.4-0.6-7.8-1.9c-2.3-1.4-4.3-3.3-6-5.5v16.2c0,4.8-1.7,7.1-5.2,7.1c-1.6,0.2-3.2-0.5-4-1.8c-0.8-1.7-1.1-3.5-1-5.4V40.7
	c-0.1-1.6,0.4-3.3,1.3-4.6c0.9-1,2.3-1.6,3.7-1.5c1.4,0,2.8,0.5,3.7,1.6C579.6,37.4,580.1,39,580,40.6L580,40.6L580,40.6z
	 M601.1,56.3c0.1-2.5-0.4-5-1.3-7.3c-0.7-1.9-2-3.5-3.6-4.7c-1.5-1.1-3.3-1.6-5.1-1.6c-2.9,0-5.7,1.3-7.5,3.5
	c-2,2.3-3.1,5.8-3.1,10.4c-0.2,3.6,0.9,7.1,3,10c1.8,2.3,4.6,3.6,7.6,3.6c1.8,0,3.5-0.5,5-1.6c1.6-1.2,2.9-2.8,3.7-4.7
	C600.7,61.5,601.2,58.9,601.1,56.3z"/>
<polygon class="st2" points="35.4,53.8 49.5,2 52.3,2 93.2,2 122.9,2 127.6,2 113.4,55.2 106.4,53.4 118.2,9.4 93.2,9.4 55.1,9.4 
	42.4,55.7 "/>
<path class="st2" d="M105.4,63.7c-0.1-0.1-0.2-0.1-0.2-0.2l0,0c-0.8-0.5-1.8-0.6-2.7-0.3c-1.5,0.4-2.8,1.3-3.8,2.5
	c-0.2,0.2-0.4,0.5-0.7,0.9c-1.2,1.8-1.9,3.8-1.9,6c-0.1,1.4,0.4,2.8,1.5,3.9l0,0c0.1,0.1,0.2,0.1,0.2,0.2l0,0
	c0.8,0.5,1.8,0.6,2.7,0.3c1.5-0.4,2.8-1.3,3.8-2.5l0,0c0.2-0.3,0.5-0.6,0.7-0.9c1.2-1.8,1.9-3.8,1.9-6
	C107,66.1,106.5,64.7,105.4,63.7L105.4,63.7L105.4,63.7z M109.3,57.5c0.3,0.2,0.6,0.4,0.8,0.6l0,0c2.6,2.4,4.1,5.7,4,9.3
	c0,4.3-1.5,8.4-4.3,11.6l0,0c-1.9,2.4-4.6,4.1-7.5,4.9s-6.1,0.3-8.6-1.4l0,0c-0.3-0.2-0.6-0.4-0.8-0.6l0,0c-2.6-2.4-4.1-5.7-4-9.3
	c0-3.6,1.1-7.2,3.2-10.2c0.4-0.5,0.7-1,1.1-1.5c1.9-2.4,4.6-4.1,7.5-4.9C103.6,55.3,106.8,55.8,109.3,57.5L109.3,57.5z"/>
<path class="st2" d="M41.4,62.5c-0.1-0.1-0.2-0.1-0.2-0.2c-0.8-0.5-1.8-0.6-2.7-0.3c-1.5,0.4-2.8,1.3-3.8,2.5
	c-0.2,0.3-0.5,0.6-0.7,0.9l0,0c-1.2,1.8-1.9,3.8-1.9,6c-0.1,1.4,0.4,2.8,1.5,3.9l0,0c0.1,0.1,0.2,0.1,0.2,0.2l0,0
	c0.8,0.5,1.8,0.6,2.7,0.3c1.5-0.4,2.8-1.3,3.8-2.6c0.2-0.3,0.5-0.6,0.7-0.9l0,0c1.2-1.8,1.9-3.8,1.9-6
	C42.9,64.9,42.4,63.5,41.4,62.5L41.4,62.5L41.4,62.5z M45.2,56.3c0.3,0.2,0.6,0.4,0.8,0.6l0,0c2.6,2.4,4.1,5.8,4,9.3
	c0,3.6-1.1,7.2-3.2,10.1l0,0c-0.4,0.5-0.7,1-1.1,1.5c-1.9,2.4-4.6,4.1-7.5,4.9s-6.1,0.3-8.6-1.4l0,0c-0.3-0.2-0.6-0.4-0.8-0.6l0,0
	c-2.6-2.4-4.1-5.7-4-9.3c0-3.6,1.1-7.2,3.2-10.1l0,0c0.4-0.5,0.7-1,1.1-1.5c1.9-2.4,4.6-4.1,7.5-4.9C39.5,54.1,42.7,54.6,45.2,56.3z
	"/>
<polygon class="st2" points="89.9,17.4 80,17.4 83.6,5.7 93.2,5.7 "/>
<polygon class="st2" points="52.9,68.1 87.3,68.1 86,72.8 51.6,72.8 "/>
<polygon class="st2" points="55.7,60.5 88.8,60.5 87.5,63.9 54.5,63.9 "/>
<path class="st2" d="M65.7,11.9c2,0,3.6,1.6,3.6,3.6s-1.6,3.6-3.6,3.6H3.6c-2,0-3.6-1.6-3.6-3.6s1.6-3.6,3.6-3.6H65.7z"/>
<path class="st2" d="M64.1,21.9c2-0.1,3.7,1.5,3.7,3.5s-1.5,3.7-3.5,3.7c-1.2,0-51,0-51.2,0c-2,0-3.6-1.7-3.6-3.7s1.6-3.5,3.6-3.5
	C13.3,21.9,62.9,21.9,64.1,21.9z"/>
<path class="st2" d="M60.6,31.6c2,0,3.6,1.6,3.6,3.6s-1.6,3.6-3.6,3.6H22.8c-2,0-3.6-1.6-3.6-3.6s1.6-3.6,3.6-3.6H60.6z"/>
</svg>
