<svg xmlns="http://www.w3.org/2000/svg" width="193.96" height="28" viewBox="0 0 193.96 28"><defs><style>.cls-1{fill:#181919;}.cls-2{fill:#ff8117;}.cls-3{fill:#ff2f22;}.cls-4{fill:#1b1b1b;}</style></defs><title>Ресурс 6</title><g id="Слой_2" data-name="Слой 2"><g id="Слой_1-2" data-name="Слой 1"><rect class="cls-1" y="3.4" width="22.2" height="2.2" rx="1.1" ry="1.1"/><path class="cls-2" d="M61.71,20.89l-.89-2.19H53.27l-.89,2.23a7.52,7.52,0,0,1-.89,1.77,1.45,1.45,0,0,1-1.2.46A1.83,1.83,0,0,1,49,22.68a1.46,1.46,0,0,1-.54-1.1,2.39,2.39,0,0,1,.13-.74c.09-.26.22-.61.42-1.06L53.79,8.45l.49-1.17a5.66,5.66,0,0,1,.61-1.14,2.44,2.44,0,0,1,.85-.73A2.73,2.73,0,0,1,57,5.13a2.77,2.77,0,0,1,1.31.28,2.49,2.49,0,0,1,.85.72,4.85,4.85,0,0,1,.54.95c.15.34.34.79.56,1.35l4.85,11.25a5.39,5.39,0,0,1,.57,1.87,1.51,1.51,0,0,1-.54,1.11,1.83,1.83,0,0,1-1.3.5,1.75,1.75,0,0,1-.76-.15,1.58,1.58,0,0,1-.53-.4,3.78,3.78,0,0,1-.46-.78c-.17-.35-.31-.67-.43-.93ZM54.26,16h5.55L57,8.86Z"/><path class="cls-2" d="M68.24,21.19V7.11a2.1,2.1,0,0,1,.46-1.47A1.61,1.61,0,0,1,70,5.13a1.69,1.69,0,0,1,1.26.5,2,2,0,0,1,.48,1.48V21.19a2,2,0,0,1-.49,1.48,1.69,1.69,0,0,1-1.25.5,1.6,1.6,0,0,1-1.23-.51A2.07,2.07,0,0,1,68.24,21.19Z"/><path class="cls-2" d="M78.72,11.8v9.39a2,2,0,0,1-.49,1.47,1.68,1.68,0,0,1-1.25.5,1.6,1.6,0,0,1-1.23-.51,2.07,2.07,0,0,1-.48-1.46V11.9a2,2,0,0,1,.48-1.45A1.64,1.64,0,0,1,77,10a1.7,1.7,0,0,1,1.25.49,1.82,1.82,0,0,1,.49,1.36ZM77,8.45A1.9,1.9,0,0,1,75.78,8a1.43,1.43,0,0,1-.51-1.18,1.41,1.41,0,0,1,.52-1.13A1.83,1.83,0,0,1,77,5.28a1.88,1.88,0,0,1,1.19.4,1.4,1.4,0,0,1,.52,1.17A1.44,1.44,0,0,1,78.22,8,1.82,1.82,0,0,1,77,8.45Z"/><path class="cls-3" d="M84.87,5.42h4.9a14,14,0,0,1,3.28.33A6.19,6.19,0,0,1,95.54,7q2.9,2.33,2.9,7.09A13.07,13.07,0,0,1,98.15,17a8.25,8.25,0,0,1-.9,2.34,7.36,7.36,0,0,1-1.56,1.86,6.44,6.44,0,0,1-1.63,1,7.63,7.63,0,0,1-1.91.54,15.68,15.68,0,0,1-2.3.15h-4.9a3.25,3.25,0,0,1-1.55-.29,1.36,1.36,0,0,1-.67-.82,4.82,4.82,0,0,1-.16-1.37V7.59a1.87,1.87,0,0,1,1.58-2.16,2.11,2.11,0,0,1,.73,0Zm1.46,2.8V20.07h2.85c.62,0,1.12,0,1.47,0a4.94,4.94,0,0,0,1.1-.24,3.12,3.12,0,0,0,1-.54q1.89-1.5,1.89-5.17a7.23,7.23,0,0,0-.83-3.87,3.65,3.65,0,0,0-2-1.64,10.84,10.84,0,0,0-2.94-.35H86.32Z"/><path class="cls-3" d="M104.93,18.48v2.71a2,2,0,0,1-.49,1.48,1.69,1.69,0,0,1-1.25.5,1.63,1.63,0,0,1-1.23-.5,2,2,0,0,1-.48-1.47v-9q0-2.19,1.68-2.19a1.44,1.44,0,0,1,1.24.51,2.7,2.7,0,0,1,.42,1.51,5.69,5.69,0,0,1,1.27-1.51,2.75,2.75,0,0,1,1.74-.51,4.68,4.68,0,0,1,2.11.51,1.54,1.54,0,0,1,1,1.36,1.25,1.25,0,0,1-.44,1,1.38,1.38,0,0,1-.94.39,4.58,4.58,0,0,1-.92-.22,4.57,4.57,0,0,0-1.29-.22,2,2,0,0,0-1.24.37,2.41,2.41,0,0,0-.75,1.11A7.4,7.4,0,0,0,105,16Q104.93,17,104.93,18.48Z"/><path class="cls-3" d="M124.82,16.56a7.26,7.26,0,0,1-.48,2.68,5.88,5.88,0,0,1-1.4,2.1,6.14,6.14,0,0,1-2.18,1.35,8.15,8.15,0,0,1-2.85.47,7.92,7.92,0,0,1-2.83-.48,6,6,0,0,1-3.57-3.46,7.79,7.79,0,0,1,0-5.37,5.89,5.89,0,0,1,1.38-2.1,6.18,6.18,0,0,1,2.18-1.34,8.75,8.75,0,0,1,5.68,0,6,6,0,0,1,3.58,3.46,7.3,7.3,0,0,1,.48,2.68Zm-3.48,0a4.67,4.67,0,0,0-.93-3.09,3.11,3.11,0,0,0-2.5-1.1,3.24,3.24,0,0,0-1.79.49,3.16,3.16,0,0,0-1.19,1.46,6.23,6.23,0,0,0,0,4.47,3.07,3.07,0,0,0,3,2,3.09,3.09,0,0,0,2.5-1.11A4.65,4.65,0,0,0,121.35,16.56Z"/><path class="cls-3" d="M130.74,11.78v.39a6.7,6.7,0,0,1,2-1.66,5.2,5.2,0,0,1,2.38-.53,5.78,5.78,0,0,1,2.94.77A5.46,5.46,0,0,1,140.21,13a7.49,7.49,0,0,1,.78,3.52,8.15,8.15,0,0,1-.45,2.75,6.09,6.09,0,0,1-1.24,2.11,5.34,5.34,0,0,1-1.85,1.31,5.79,5.79,0,0,1-2.3.46,5.06,5.06,0,0,1-2.49-.56A6.94,6.94,0,0,1,130.74,21v4.88q0,2.14-1.66,2.14a1.37,1.37,0,0,1-1.29-.55,3.29,3.29,0,0,1-.32-1.61v-14a1.94,1.94,0,0,1,.43-1.38,1.54,1.54,0,0,1,1.18-.46,1.61,1.61,0,0,1,1.2.47,1.87,1.87,0,0,1,.46,1.36Zm6.77,4.72a5.27,5.27,0,0,0-.42-2.21,3.27,3.27,0,0,0-1.15-1.42,2.9,2.9,0,0,0-1.64-.49,3.17,3.17,0,0,0-2.41,1.06,4.45,4.45,0,0,0-1,3.11,4.33,4.33,0,0,0,1,3,3.13,3.13,0,0,0,2.42,1.08,2.9,2.9,0,0,0,1.59-.47,3.29,3.29,0,0,0,1.18-1.41A5.32,5.32,0,0,0,137.51,16.51Z"/><path class="cls-3" d="M154.89,18.92a3.78,3.78,0,0,1-2.75,3.75,9.77,9.77,0,0,1-3.31.49,8.53,8.53,0,0,1-3.19-.54,4.62,4.62,0,0,1-2-1.34,2.6,2.6,0,0,1-.63-1.61,1.2,1.2,0,0,1,.41-.91,1.42,1.42,0,0,1,1-.38,1.25,1.25,0,0,1,.83.25,2.69,2.69,0,0,1,.56.7,3.37,3.37,0,0,0,3.29,1.73,3.05,3.05,0,0,0,1.7-.43,1.21,1.21,0,0,0,.67-1,1.34,1.34,0,0,0-.69-1.25,9.09,9.09,0,0,0-2.27-.75,19.74,19.74,0,0,1-2.91-.87,4.83,4.83,0,0,1-1.79-1.21,2.68,2.68,0,0,1-.67-1.84,3.14,3.14,0,0,1,.62-1.85,4.21,4.21,0,0,1,1.83-1.38,7.39,7.39,0,0,1,2.92-.52,10.1,10.1,0,0,1,2.41.26,6.25,6.25,0,0,1,1.79.7,3.58,3.58,0,0,1,1.09,1,1.82,1.82,0,0,1,.38,1,1.17,1.17,0,0,1-.4.91,1.63,1.63,0,0,1-1.13.36,1.45,1.45,0,0,1-.91-.28,6.06,6.06,0,0,1-.86-.86,2.71,2.71,0,0,0-2.36-1,3,3,0,0,0-1.56.37,1.1,1.1,0,0,0-.62.94,1,1,0,0,0,.45.84,3.89,3.89,0,0,0,1.23.54q.77.21,2.13.52a11.74,11.74,0,0,1,2.63.88,4.29,4.29,0,0,1,1.54,1.21A2.55,2.55,0,0,1,154.89,18.92Z"/><path class="cls-3" d="M161.19,7.11v4.81a7.21,7.21,0,0,1,1.29-1.13,4.74,4.74,0,0,1,1.38-.63A6.24,6.24,0,0,1,165.5,10a5.07,5.07,0,0,1,2.34.52,3.87,3.87,0,0,1,1.6,1.52,3.55,3.55,0,0,1,.5,1.3,9.9,9.9,0,0,1,.13,1.66v6.23a2.07,2.07,0,0,1-.48,1.47,1.66,1.66,0,0,1-1.26.5q-1.71,0-1.71-2V15.7a4.76,4.76,0,0,0-.49-2.4,2,2,0,0,0-1.88-.84,2.94,2.94,0,0,0-1.66.5,3,3,0,0,0-1.11,1.35,8.12,8.12,0,0,0-.28,2.58v4.3a2.1,2.1,0,0,1-.46,1.47,1.65,1.65,0,0,1-1.28.51q-1.71,0-1.71-2V7.11a2.13,2.13,0,0,1,.45-1.48,1.61,1.61,0,0,1,1.26-.5,1.66,1.66,0,0,1,1.28.5A2.1,2.1,0,0,1,161.19,7.11Z"/><path class="cls-3" d="M176.94,11.8v9.39a2,2,0,0,1-.49,1.47,1.68,1.68,0,0,1-1.25.5,1.6,1.6,0,0,1-1.23-.51,2.07,2.07,0,0,1-.48-1.46V11.9a2,2,0,0,1,.48-1.45A1.64,1.64,0,0,1,175.2,10a1.7,1.7,0,0,1,1.25.49,1.82,1.82,0,0,1,.49,1.36Zm-1.71-3.35A1.9,1.9,0,0,1,174,8a1.43,1.43,0,0,1-.51-1.18A1.41,1.41,0,0,1,174,5.72a1.83,1.83,0,0,1,1.22-.45,1.88,1.88,0,0,1,1.19.4,1.4,1.4,0,0,1,.52,1.17A1.44,1.44,0,0,1,176.43,8,1.82,1.82,0,0,1,175.23,8.45Z"/><path class="cls-3" d="M183.71,11.78v.39a6.71,6.71,0,0,1,2-1.66,5.21,5.21,0,0,1,2.38-.53,5.78,5.78,0,0,1,2.94.77A5.46,5.46,0,0,1,193.18,13a7.49,7.49,0,0,1,.78,3.52,8.15,8.15,0,0,1-.45,2.75,6.09,6.09,0,0,1-1.24,2.11,5.34,5.34,0,0,1-1.85,1.31,5.79,5.79,0,0,1-2.3.46,5.05,5.05,0,0,1-2.49-.56A6.94,6.94,0,0,1,183.71,21v4.88q0,2.14-1.66,2.14a1.37,1.37,0,0,1-1.29-.55,3.29,3.29,0,0,1-.32-1.61v-14a1.94,1.94,0,0,1,.43-1.38,1.54,1.54,0,0,1,1.18-.46,1.61,1.61,0,0,1,1.2.47,1.87,1.87,0,0,1,.46,1.36Zm6.77,4.72a5.27,5.27,0,0,0-.42-2.21,3.27,3.27,0,0,0-1.15-1.42,2.9,2.9,0,0,0-1.64-.49,3.16,3.16,0,0,0-2.41,1.06,4.45,4.45,0,0,0-1,3.11,4.33,4.33,0,0,0,1,3,3.13,3.13,0,0,0,2.42,1.08,2.9,2.9,0,0,0,1.59-.47A3.29,3.29,0,0,0,190,18.78,5.32,5.32,0,0,0,190.48,16.51Z"/><path class="cls-4" d="M12.64,10.91l-1.15,4,2.24.57h0L15,10.91l.48-1.65.4-1.36.48-1.65.4-1.36.48-1.65.29-1h8.78l-.77,2.39h3.15l.72-2.39h8.33L34,15.45l2.24.56L40.81,0h-25l-.94,3.23-.48,1.65L14,6.25,13.51,7.9l-.4,1.36Zm22.58,6L35,16.71h0a3.49,3.49,0,0,0-2.74-.42,4.81,4.81,0,0,0-2.41,1.48,5.52,5.52,0,0,0-.36.44,5.14,5.14,0,0,0-1,3.06A3.56,3.56,0,0,0,29.7,24h0l.26.19h0a3.49,3.49,0,0,0,2.74.42,4.8,4.8,0,0,0,2.4-1.47h0a5.26,5.26,0,0,0,1.38-3.5,3.56,3.56,0,0,0-1.28-2.79Zm-1.64,4.62-.22.27h0a2.46,2.46,0,0,1-1.22.77,1.11,1.11,0,0,1-.86-.1h0l-.08-.06h0a1.48,1.48,0,0,1-.47-1.16,3,3,0,0,1,.61-1.8l.22-.27a2.46,2.46,0,0,1,1.22-.77,1.11,1.11,0,0,1,.87.1h0l.08.06h0a1.48,1.48,0,0,1,.47,1.16A3,3,0,0,1,33.58,21.51ZM14.69,16.89l-.27-.19a3.49,3.49,0,0,0-2.74-.42,4.81,4.81,0,0,0-2.41,1.48,5.66,5.66,0,0,0-.37.44h0a5.14,5.14,0,0,0-1,3.05A3.56,3.56,0,0,0,9.17,24h0l.26.19h0a3.49,3.49,0,0,0,2.74.42,4.81,4.81,0,0,0,2.41-1.47,5.42,5.42,0,0,0,.36-.45h0a5.13,5.13,0,0,0,1-3.05,3.56,3.56,0,0,0-1.28-2.79ZM13,21.51l-.21.26a2.47,2.47,0,0,1-1.22.77,1.11,1.11,0,0,1-.87-.1h0l-.08-.06h0a1.47,1.47,0,0,1-.47-1.16,3,3,0,0,1,.61-1.8h0l.21-.27a2.46,2.46,0,0,1,1.22-.77,1.11,1.11,0,0,1,.87.1l.08.06a1.48,1.48,0,0,1,.47,1.16,3,3,0,0,1-.61,1.8Zm3.45-.33H27.28l.47-1.38H16.95Zm.71-2.38H28l.55-1.2H17.6Z"/><rect class="cls-4" x="3.24" y="6.76" width="18.29" height="2.03" rx="1" ry="1"/><path class="cls-4" d="M7,10H19.87a1,1,0,0,1,1,1V11a1,1,0,0,1-1,1H7a1,1,0,0,1-1-1V11a1,1,0,0,1,1-1Z"/></g></g></svg>