<svg xmlns="http://www.w3.org/2000/svg" viewBox="0 0 62.5 62.5"><defs><style>.cls-1{fill:#f57f17;}.cls-2{fill:#f57f17;}</style></defs><title>pitch-inside-automation</title><g id="Слой_2" data-name="Слой 2"><g id="Слой_1-2" data-name="Слой 1"><path class="cls-1" d="M54,62.5H41.66a.75.75,0,0,1,0-1.5H54a7,7,0,0,0,7-7V41.79a.75.75,0,1,1,1.5,0V54A8.48,8.48,0,0,1,54,62.5Z"/><path class="cls-1" d="M20.84,62.5H8.47A8.48,8.48,0,0,1,0,54V41.79a.75.75,0,1,1,1.5,0V54a7,7,0,0,0,7,7H20.84a.75.75,0,1,1,0,1.5Z"/><path class="cls-1" d="M.75,21.46A.75.75,0,0,1,0,20.71V8.48A8.48,8.48,0,0,1,8.47,0H20.7a.75.75,0,1,1,0,1.5H8.47a7,7,0,0,0-7,7V20.71a.75.75,0,0,1-.75.75Z"/><path class="cls-1" d="M61.75,21.46a.75.75,0,0,1-.75-.75V8.48a7,7,0,0,0-7-7H41.8a.75.75,0,0,1,0-1.5H54A8.48,8.48,0,0,1,62.5,8.48V20.71a.75.75,0,0,1-.75.75Z"/><path class="cls-2" d="M36,45.76a.75.75,0,0,1,.69.47l1.86,4.6,3.32-1.35L40,44.87a.75.75,0,0,1,.31-.92,15.36,15.36,0,0,0,4.9-4.73.75.75,0,0,1,.93-.27l4.52,2,1.47-3.28-4.53-2a.75.75,0,0,1-.42-.88,15.27,15.27,0,0,0,.25-6.8.75.75,0,0,1,.48-.85l4.67-1.68-1.21-3.37L46.7,23.76a.75.75,0,0,1-.91-.34,15.25,15.25,0,0,0-5-5.44.75.75,0,0,1-.28-.93l2-4.53-3.27-1.46-2,4.53a.75.75,0,0,1-.88.42,15.38,15.38,0,0,0-7.42-.12.75.75,0,0,1-.87-.45l-1.87-4.6-3.32,1.35,1.87,4.6a.75.75,0,0,1-.31.92,15.15,15.15,0,0,0-4.9,4.73.75.75,0,0,1-.93.27l-4.52-2L12.58,24l4.52,2a.75.75,0,0,1,.42.88,15.24,15.24,0,0,0-.25,6.8.75.75,0,0,1-.48.85l-4.67,1.67,1.21,3.38L18,37.89a.75.75,0,0,1,.91.34,15.41,15.41,0,0,0,5,5.45.75.75,0,0,1,.28.93l-2,4.53,3.27,1.45,2-4.52a.75.75,0,0,1,.88-.42,15.35,15.35,0,0,0,7.43.12l.17,0Zm2.15,6.79a.75.75,0,0,1-.7-.47l-1.91-4.71a16.88,16.88,0,0,1-6.9-.11l-2.07,4.63a.75.75,0,0,1-1,.38L20.92,50.2a.75.75,0,0,1-.38-1l2.07-4.64a16.93,16.93,0,0,1-4.69-5.06l-4.79,1.71a.75.75,0,0,1-1-.45L10.45,36a.75.75,0,0,1,.45-1l4.79-1.71a16.76,16.76,0,0,1,.23-6.21L11.29,25a.75.75,0,0,1-.38-1L13,19.39a.75.75,0,0,1,.42-.4A.74.74,0,0,1,14,19l4.64,2.07a16.56,16.56,0,0,1,4.48-4.32L21.17,12a.75.75,0,0,1,.41-1L26.3,9.16a.75.75,0,0,1,1,.41l1.91,4.71a16.88,16.88,0,0,1,6.9.12l2.07-4.64a.75.75,0,0,1,1-.38l4.64,2.07a.75.75,0,0,1,.38,1l-2.07,4.64a16.79,16.79,0,0,1,4.69,5.06l4.78-1.71a.75.75,0,0,1,1,.45l1.72,4.78a.75.75,0,0,1-.45,1L49,28.34a16.79,16.79,0,0,1-.23,6.22l4.64,2.07a.75.75,0,0,1,.38,1l-2.08,4.65a.75.75,0,0,1-1,.38l-4.64-2.07a16.91,16.91,0,0,1-4.47,4.32l1.91,4.71a.75.75,0,0,1-.41,1l-4.72,1.91a.76.76,0,0,1-.28.06Z"/><path class="cls-2" d="M31,36.57a5.9,5.9,0,1,0-3.66-2.63A5.91,5.91,0,0,0,31,36.57Zm1.35,1.66a7.41,7.41,0,0,1-1.69-.2h0a7.4,7.4,0,1,1,8.9-5.52,7.42,7.42,0,0,1-7.21,5.72Z"/><path class="cls-2" d="M35.91,20.64a.75.75,0,0,1-.23,0,10.85,10.85,0,0,0-6.64,0,.75.75,0,0,1-.46-1.43,12.36,12.36,0,0,1,7.57,0,.75.75,0,0,1-.23,1.46ZM20.85,31.55h0a.75.75,0,0,1-.75-.75,12.16,12.16,0,0,1,2.35-7.19.75.75,0,0,1,1.21.88,10.67,10.67,0,0,0-2.06,6.31.75.75,0,0,1-.75.75Zm23,0a.73.73,0,0,1-.75-.73v0a10.66,10.66,0,0,0-2-6.31.75.75,0,0,1,1.21-.88,12.16,12.16,0,0,1,2.34,7.2.77.77,0,0,1-.75.77ZM28.77,42.51a.76.76,0,0,1-.23,0A12.37,12.37,0,0,1,22.42,38a.75.75,0,0,1,1.22-.88A10.85,10.85,0,0,0,29,41a.75.75,0,0,1-.23,1.46Zm7.1,0a.75.75,0,0,1-.23-1.46A10.86,10.86,0,0,0,41,37.18a.75.75,0,0,1,1.21.89,12.35,12.35,0,0,1-6.14,4.43.74.74,0,0,1-.23,0Z"/></g></g></svg>