<svg xmlns="http://www.w3.org/2000/svg" style="fill:#f57f17;" viewBox="0 0 508 504.32"><title>pitch-inside-marketing</title><g id="Слой_2" data-name="Слой 2"><g id="Capa_1" data-name="Capa 1"><rect x="106.5" y="209.32" width="16.4" height="16.4"/><rect x="106.5" y="242.02" width="16.4" height="16.4"/><rect x="106.5" y="176.52" width="16.4" height="16.4"/><path d="M458.8,217.43a90,90,0,0,0-49.2-80.3V24.62a24.61,24.61,0,0,0-37.1-21.2L169.8,127.32H49.2v32.8H0v114.7H49.2v32.8H75.3L108.9,469a44.37,44.37,0,0,0,77.8,19,44,44,0,0,0,9-37l-29.9-143.3h4l202.9,123.9.2.1a24.67,24.67,0,0,0,12.3,3.3,25,25,0,0,0,12.3-3.3,24.28,24.28,0,0,0,12.3-21.3V297.73A90.14,90.14,0,0,0,458.8,217.43Zm-442.4,41v-81.9H49.2v81.9Zm49.1,32.8V143.73h98.3v147.5H65.5Zm114.1,163a27.56,27.56,0,0,1-5.7,23.3,27.85,27.85,0,0,1-48.9-11.9l-33-158h57Zm.7-314.1L352.3,35v364.9l-172-105.1Zm213,270.2a8.06,8.06,0,0,1-4.1,7.1,8,8,0,0,1-8.1,0l-12.4-7.6V25l12.3-7.5a8.17,8.17,0,0,1,8.2,0,8.06,8.06,0,0,1,4.1,7.1Zm16.4-131.7V156.32a73.4,73.4,0,0,1,0,122.3Z"/><rect x="475.2" y="209.32" width="32.8" height="16.4"/><rect x="446.16" y="111.3" width="32.8" height="16.4" transform="translate(50.98 362.08) rotate(-45)"/><rect x="454.36" y="299.1" width="16.4" height="32.8" transform="translate(-87.6 419.57) rotate(-45.01)"/></g></g></svg>