<?xml version="1.0" encoding="UTF-8"?>
<!DOCTYPE svg PUBLIC "-//W3C//DTD SVG 1.1//EN" "http://www.w3.org/Graphics/SVG/1.1/DTD/svg11.dtd">
<!-- Creator: CorelDRAW 2017 -->
<svg xmlns="http://www.w3.org/2000/svg" xml:space="preserve" width="177px" height="40px" version="1.1" style="shape-rendering:geometricPrecision; text-rendering:geometricPrecision; image-rendering:optimizeQuality; fill-rule:evenodd; clip-rule:evenodd"
viewBox="0 0 43372 8115"
 xmlns:xlink="http://www.w3.org/1999/xlink">
 <defs>
  <style type="text/css">
   <![CDATA[
    .fil4 {fill:#3d3d3d}
    .fil2 {fill:#FFFFFF}
    .fil1 {fill:#EF6A22}
    .fil3 {fill:#FFFFFF}
    .fil0 {fill:#FFFFFF}
   ]]>
  </style>
 </defs>
 <g id="Слой_x0020_1">
  <metadata id="CorelCorpID_0Corel-Layer"/>
  <path class="fil0" d="M32376 27l0 2597c186,-177 388,-311 605,-400 156,-63 320,-104 491,-122l0 986 0 0 0 0 0 0 0 0 0 0 0 0 0 0 0 0 0 0c-3,0 -7,0 -10,0l0 0 0 0 0 0c-586,0 -1060,481 -1060,1074 0,593 475,1074 1060,1074 586,0 1060,-481 1060,-1074 0,-9 0,-18 0,-27l0 0 0 -5c0,-8 0,-15 -1,-23l0 -6c0,-7 -1,-14 -1,-22 0,-5 -1,-9 -1,-14 0,-4 -1,-8 -1,-13 -1,-5 -1,-10 -2,-16 0,-4 -1,-8 -1,-11 -1,-4 -1,-8 -2,-12 -1,-5 -1,-10 -2,-15 -1,-4 -1,-8 -2,-12 -1,-5 -2,-10 -2,-14 -1,-4 -2,-9 -2,-13 -1,-5 -2,-9 -3,-14 -1,-4 -2,-7 -2,-11 -1,-5 -2,-10 -3,-15 -1,-4 -2,-9 -3,-13 -1,-4 -2,-8 -3,-12 -1,-5 -3,-10 -4,-15 -1,-4 -2,-7 -3,-11 -1,-5 -3,-10 -4,-15 -1,-3 -2,-7 -3,-10 -1,-5 -3,-10 -5,-14 -1,-4 -2,-7 -3,-11 -2,-5 -3,-9 -5,-14 -1,-4 -3,-7 -4,-11 -2,-5 -3,-9 -5,-14 -1,-4 -3,-7 -4,-11 -2,-4 -4,-9 -5,-13 -1,-4 -3,-7 -4,-11 -2,-4 -4,-9 -5,-13 -2,-4 -3,-7 -5,-11 -2,-4 -4,-8 -6,-13 -2,-4 -3,-7 -5,-11 -2,-4 -4,-8 -6,-12 -2,-4 -4,-7 -5,-11 -2,-4 -4,-9 -7,-13 -2,-3 -3,-6 -5,-10 -2,-4 -5,-9 -7,-13l-5 -10c-2,-4 -5,-9 -7,-13l-5 -9c-3,-4 -5,-9 -8,-13l-5 -9c-3,-4 -5,-8 -8,-13l-6 -9c-3,-4 -6,-9 -9,-13l-6 -8c-3,-4 -6,-8 -9,-12l-6 -9c-3,-4 -6,-8 -9,-12l-6 -8c-3,-4 -7,-9 -10,-13l-6 -7c-3,-4 -7,-9 -11,-13l-5 -7c-4,-4 -7,-8 -11,-13l-6 -7c-4,-4 -7,-8 -11,-12l-6 -6c-4,-4 -8,-8 -12,-12l-6 -6c-4,-4 -8,-8 -12,-12l-7 -7c-4,-4 -8,-8 -12,-11l-6 -6c-4,-4 -8,-8 -13,-11l-6 -6c-4,-4 -9,-8 -13,-11l-6 -5c-4,-4 -9,-8 -14,-11l-6 -5c-5,-4 -9,-8 -14,-11l-5 -4c-5,-4 -10,-7 -15,-11l-6 -4c-5,-4 -10,-7 -15,-11l-6 -4c-5,-3 -10,-7 -15,-10l-6 -4c-5,-3 -10,-7 -15,-10l-6 -4c-5,-3 -11,-7 -16,-10l-5 -3c-5,-3 -11,-6 -16,-10l-6 -3c-6,-3 -11,-6 -17,-9l-5 -3c-6,-3 -11,-6 -17,-9l-6 -3c-6,-3 -12,-6 -18,-9l-5 -2c-6,-3 -12,-6 -19,-9l-4 -2c-6,-3 -13,-6 -19,-8l-4 -2c-7,-3 -13,-5 -20,-8l-4 -1c-7,-3 -13,-5 -20,-7l-5 -2c-7,-2 -13,-5 -20,-7l-5 -1c-7,-2 -13,-4 -20,-6l-5 -2c-7,-2 -13,-4 -20,-6l-4 -1c-7,-2 -14,-4 -21,-6l-4 -1c-7,-2 -14,-3 -21,-5l-4 -1c-7,-2 -15,-3 -22,-5l-4 -1c-7,-1 -15,-3 -22,-4l-4 -1c-7,-1 -15,-2 -22,-4l-3 0c-8,-1 -15,-2 -23,-3l-4 0c-8,-1 -15,-2 -23,-3l-2 0c-8,-1 -16,-1 -24,-2l-2 0c-8,-1 -17,-1 -25,-1l-1 0c-8,0 -26,-1 -34,-1l0 0 0 -986c65,-7 139,-11 206,-11 537,0 993,194 1369,582 376,389 564,887 564,1495 0,586 -194,1076 -583,1470 -388,395 -848,592 -1381,592 -237,0 -458,-41 -662,-121 -204,-81 -407,-212 -609,-395l0 420 -1032 0 0 -6108 1032 0z"/>
  <path class="fil0" d="M27762 27l0 2597c186,-177 388,-311 605,-400 156,-63 320,-104 491,-122l0 986 0 0 0 0 0 0 0 0 0 0 0 0 0 0 0 0 0 0c-3,0 -7,0 -10,0l0 0 0 0 0 0c-586,0 -1060,481 -1060,1074 0,593 475,1074 1060,1074 586,0 1060,-481 1060,-1074 0,-9 0,-18 0,-27l0 0 0 -5c0,-8 0,-15 -1,-23l0 -6c0,-7 -1,-14 -1,-22 0,-5 -1,-9 -1,-14 0,-4 -1,-8 -1,-13 -1,-5 -1,-10 -2,-16 0,-4 -1,-8 -1,-11 -1,-4 -1,-8 -2,-12 -1,-5 -1,-10 -2,-15 -1,-4 -1,-8 -2,-12 -1,-5 -2,-10 -2,-14 -1,-4 -2,-9 -2,-13 -1,-5 -2,-9 -3,-14 -1,-4 -2,-7 -2,-11 -1,-5 -2,-10 -3,-15 -1,-4 -2,-9 -3,-13 -1,-4 -2,-8 -3,-12 -1,-5 -3,-10 -4,-15 -1,-4 -2,-7 -3,-11 -1,-5 -3,-10 -4,-15 -1,-3 -2,-7 -3,-10 -1,-5 -3,-10 -5,-14 -1,-4 -2,-7 -3,-11 -2,-5 -3,-9 -5,-14 -1,-4 -3,-7 -4,-11 -2,-5 -3,-9 -5,-14 -1,-4 -3,-7 -4,-11 -2,-4 -4,-9 -5,-13 -1,-4 -3,-7 -4,-11 -2,-4 -4,-9 -5,-13 -2,-4 -3,-7 -5,-11 -2,-4 -4,-8 -6,-13 -2,-4 -3,-7 -5,-11 -2,-4 -4,-8 -6,-12 -2,-4 -4,-7 -5,-11 -2,-4 -4,-9 -7,-13 -2,-3 -3,-6 -5,-10 -2,-4 -5,-9 -7,-13l-5 -10c-2,-4 -5,-9 -7,-13l-5 -9c-3,-4 -5,-9 -8,-13l-5 -9c-3,-4 -5,-8 -8,-13l-6 -9c-3,-4 -6,-9 -9,-13l-6 -8c-3,-4 -6,-8 -9,-12l-6 -9c-3,-4 -6,-8 -9,-12l-6 -8c-3,-4 -7,-9 -10,-13l-6 -7c-3,-4 -7,-9 -11,-13l-5 -7c-4,-4 -7,-8 -11,-13l-6 -7c-4,-4 -7,-8 -11,-12l-6 -6c-4,-4 -8,-8 -12,-12l-6 -6c-4,-4 -8,-8 -12,-12l-7 -7c-4,-4 -8,-8 -12,-11l-6 -6c-4,-4 -8,-8 -13,-11l-6 -6c-4,-4 -9,-8 -13,-11l-6 -5c-4,-4 -9,-8 -14,-11l-6 -5c-5,-4 -9,-8 -14,-11l-5 -4c-5,-4 -10,-7 -15,-11l-6 -4c-5,-4 -10,-7 -15,-11l-6 -4c-5,-3 -10,-7 -15,-10l-6 -4c-5,-3 -10,-7 -15,-10l-6 -4c-5,-3 -11,-7 -16,-10l-5 -3c-5,-3 -11,-6 -16,-10l-6 -3c-6,-3 -11,-6 -17,-9l-5 -3c-6,-3 -11,-6 -17,-9l-6 -3c-6,-3 -12,-6 -18,-9l-5 -2c-6,-3 -12,-6 -19,-9l-4 -2c-6,-3 -13,-6 -19,-8l-4 -2c-7,-3 -13,-5 -20,-8l-4 -1c-7,-3 -13,-5 -20,-7l-5 -2c-7,-2 -13,-5 -20,-7l-5 -1c-7,-2 -13,-4 -20,-6l-5 -2c-7,-2 -13,-4 -20,-6l-4 -1c-7,-2 -14,-4 -21,-6l-4 -1c-7,-2 -14,-3 -21,-5l-4 -1c-7,-2 -15,-3 -22,-5l-4 -1c-7,-1 -15,-3 -22,-4l-4 -1c-7,-1 -15,-2 -22,-4l-3 0c-8,-1 -15,-2 -23,-3l-4 0c-8,-1 -15,-2 -23,-3l-2 0c-8,-1 -16,-1 -24,-2l-2 0c-8,-1 -17,-1 -25,-1l-1 0c-8,0 -26,-1 -34,-1l0 0 0 -986c65,-7 139,-11 206,-11 537,0 993,194 1369,582 376,389 564,887 564,1495 0,586 -194,1076 -583,1470 -388,395 -848,592 -1381,592 -237,0 -458,-41 -662,-121 -204,-81 -407,-212 -609,-395l0 420 -1032 0 0 -6108 1032 0z"/>
  <path class="fil1" d="M0 2932c0,783 142,1495 658,2104 1143,1349 2158,1169 3741,1169 818,0 1637,0 2455,0l-1236 -1253c507,-750 588,-1150 588,-2054 0,-410 -152,-852 -295,-1137 -97,-193 -150,-280 -264,-452 -72,-109 -85,-120 -165,-210 -554,-632 -1306,-1099 -2209,-1099 -599,0 -974,24 -1512,295 -186,94 -288,146 -451,265 -744,537 -1310,1412 -1310,2372z"/>
  <path class="fil2" d="M21856 4126c0,533 198,1039 521,1422 234,277 830,658 1320,658 591,0 998,-47 1432,-546l0 477 1057 0 0 -3989 -1057 0 0 443c-173,-116 -211,-224 -442,-342 -1006,-514 -2521,97 -2773,1423 -14,73 -58,364 -58,453z"/>
  <path class="fil2" d="M8149 3307c0,601 362,895 808,1067 585,227 1306,222 1306,603 0,537 -1174,537 -1228,-102l-989 0c0,409 175,758 482,984 178,132 233,164 462,254 916,359 2295,-96 2295,-1102 0,-1021 -879,-1176 -1500,-1330 -342,-85 -614,-130 -614,-409 0,-395 637,-415 873,-225 365,294 -410,293 1139,293 0,-414 -162,-706 -394,-902 -582,-493 -1594,-490 -2218,-5 -217,169 -423,503 -423,873z"/>
  <path class="fil2" d="M20356 6513c0,732 -577,648 -1091,648l0 955 825 0c369,-23 701,-111 957,-400 200,-227 366,-619 366,-1032l0 -4535 -1057 0 0 4364z"/>
  <polygon class="fil2" points="13878,2148 13127,2148 13127,3001 13878,3001 13878,6138 14901,6138 14901,3001 15753,3001 15753,2148 14901,2148 14901,648 13878,648 "/>
  <path class="fil2" d="M41599 3001l0 -852 -1057 0 0 3989 1057 0c0,-678 -61,-1902 159,-2466 232,-596 539,-603 1000,-603 235,0 401,110 443,68 30,-61 170,-810 170,-921 -599,-317 -1285,-130 -1618,462l-155 322z"/>
  <polygon class="fil2" points="11729,6138 12752,6138 12752,2148 11729,2148 "/>
  <path class="fil2" d="M11559 614c0,808 1262,896 1350,57 38,-360 -320,-671 -566,-671 -421,0 -784,172 -784,614z"/>
  <path class="fil2" d="M20220 614c0,850 1330,837 1330,68l0 -170c0,-234 -321,-511 -546,-511 -396,0 -784,137 -784,614z"/>
  <path class="fil3" d="M2998 1270c24,-49 74,-80 129,-80 55,0 105,31 129,80l462 938c21,42 62,72 108,79l1035 150c54,8 99,46 116,98 17,52 3,109 -36,148l-748 730c-34,33 -49,81 -42,127l176 1031c9,54 -13,108 -57,141 -44,32 -103,36 -152,11l-925 -487c-42,-22 -92,-22 -134,0l-926 486c-48,26 -107,22 -152,-10 -44,-33 -66,-87 -57,-141l176 -1031c8,-47 -7,-94 -41,-127l-749 -730c-39,-38 -53,-96 -36,-148 17,-52 62,-90 116,-98l1035 -150c47,-7 88,-36 108,-79l463 -938z"/>
  <ellipse class="fil4" cx="24052" cy="4161" rx="1095" ry="1074"/>
  <path class="fil0" d="M40113 4440l-3177 0c46,281 168,505 367,673 198,166 452,249 759,249 369,0 685,-130 950,-390l830 393c-207,295 -456,513 -744,655 -290,141 -633,212 -1031,212 -617,0 -1120,-194 -1507,-585 -388,-389 -582,-877 -582,-1463 0,-601 194,-1100 582,-1496 388,-398 873,-596 1459,-596 621,0 1126,198 1515,593 389,396 583,918 583,1568l-4 187zm-985 -773c-66,-216 -194,-391 -386,-526 -193,-135 -416,-202 -671,-202 -276,0 -518,76 -727,228 -130,94 -251,261 -363,500l2148 0z"/>
  <path class="fil0" d="M19889 4440l-3177 0c46,281 168,505 367,673 198,166 452,249 759,249 369,0 685,-130 950,-390l830 393c-207,295 -456,513 -744,655 -290,141 -633,212 -1031,212 -617,0 -1120,-194 -1507,-585 -388,-389 -582,-877 -582,-1463 0,-601 194,-1100 582,-1496 388,-398 873,-596 1459,-596 621,0 1126,198 1515,593 389,396 583,918 583,1568l-4 187zm-985 -773c-66,-216 -194,-391 -386,-526 -193,-135 -416,-202 -671,-202 -276,0 -518,76 -727,228 -130,94 -251,261 -363,500l2148 0z"/>
 </g>
</svg>
